Coordinates
version=1
nRows=54
nColumns=12
inDegrees=yes

Units are S.I. units (second, meters, Newtons, ...)
Angles are in degrees

endheader
time	SC_y	SC_z	SC_x	AC_y	AC_z	AC_x	GH_y	GH_z	GH_yy	EL_x	PS_y
       0.0              -35.45          30.71           11.2          45.95         -11.04         -16.98         -69.06         -13.03          76.33          126.8          28.68
   0.03902              -35.45          30.71          11.21          45.95         -11.04         -16.98         -69.03         -13.02          76.34          126.8          28.68
   0.07804              -35.46          30.71          11.22          45.95         -11.04         -16.97          -69.0         -13.01          76.35          126.8          28.68
    0.1171              -35.46           30.7          11.23          45.95         -11.04         -16.97         -68.97          -13.0          76.36          126.7          28.68
    0.1561              -35.46           30.7          11.24          45.95         -11.04         -16.96         -68.94         -12.99          76.37          126.7          28.68
    0.1951              -35.47           30.7          11.25          45.95         -11.04         -16.96         -68.91         -12.97          76.38          126.7          28.68
    0.2341              -35.47           30.7          11.27          45.96         -11.04         -16.95         -68.87         -12.96           76.4          126.7          28.69
    0.2731              -35.48          30.69          11.28          45.96         -11.04         -16.94         -68.83         -12.95          76.41          126.7          28.69
    0.3122              -35.48          30.69          11.29          45.96         -11.04         -16.94         -68.79         -12.93          76.43          126.7          28.69
    0.3512              -35.49          30.69          11.31          45.96         -11.04         -16.93         -68.74         -12.92          76.44          126.7          28.69
    0.3902              -35.49          30.69          11.33          45.97         -11.04         -16.92         -68.69          -12.9          76.46          126.6          28.69
    0.4292               -35.5          30.68          11.34          45.97         -11.04         -16.91         -68.64         -12.88          76.48          126.6           28.7
    0.4683               -35.5          30.68          11.36          45.97         -11.04          -16.9         -68.59         -12.86           76.5          126.6           28.7
    0.5073              -35.51          30.67          11.39          45.98         -11.04         -16.89         -68.53         -12.84          76.52          126.6           28.7
    0.5463              -35.52          30.67          11.41          45.98         -11.04         -16.88         -68.46         -12.81          76.55          126.5          28.71
    0.5853              -35.52          30.67          11.43          45.98         -11.04         -16.87         -68.39         -12.79          76.57          126.5          28.71
    0.6243              -35.53          30.66          11.46          45.99         -11.04         -16.86         -68.31         -12.76           76.6          126.5          28.72
    0.6634              -35.54          30.66          11.49          45.99         -11.04         -16.84         -68.23         -12.73          76.63          126.4          28.72
    0.7024              -35.55          30.65          11.52           46.0         -11.04         -16.83         -68.13         -12.69          76.66          126.4          28.72
    0.7414              -35.56          30.64          11.56           46.0         -11.04         -16.81         -68.03         -12.66           76.7          126.4          28.73
    0.7804              -35.58          30.64           11.6          46.01         -11.04         -16.79         -67.92         -12.62          76.74          126.3          28.74
    0.8194              -35.59          30.63          11.64          46.02         -11.04         -16.77          -67.8         -12.57          76.78          126.3          28.74
    0.8585               -35.6          30.62          11.68          46.02         -11.04         -16.75         -67.66         -12.52          76.83          126.2          28.75
    0.8975              -35.62          30.61          11.74          46.03         -11.04         -16.72         -67.52         -12.47          76.89          126.1          28.76
    0.9365              -35.64           30.6          11.79          46.04         -11.04          -16.7         -67.35         -12.41          76.95          126.1          28.77
    0.9755              -35.66          30.59          11.86          46.05         -11.04         -16.66         -67.16         -12.34          77.02          126.0          28.78
     1.015              -35.68          30.57          11.93          46.06         -11.04         -16.63         -66.96         -12.26          77.09          125.9          28.79
     1.054              -35.71          30.56          12.01          46.07         -11.04         -16.59         -66.72         -12.18          77.18          125.8           28.8
     1.093              -35.74          30.54           12.1          46.09         -11.04         -16.55         -66.46         -12.08          77.27          125.7          28.81
     1.132              -35.77          30.52          12.21          46.11         -11.04          -16.5         -66.16         -11.97          77.38          125.6          28.83
     1.171              -35.81           30.5          12.33          46.12         -11.04         -16.44         -65.82         -11.85           77.5          125.4          28.85
      1.21              -35.85          30.48          12.46          46.15         -11.04         -16.37         -65.42         -11.71          77.65          125.3          28.87
     1.249               -35.9          30.45          12.62          46.17         -11.04          -16.3         -64.97         -11.54          77.81          125.1          28.89
     1.288              -35.96          30.41           12.8           46.2         -11.04         -16.21         -64.45         -11.35           78.0          124.9          28.92
     1.327              -36.03          30.37          13.02          46.23         -11.04         -16.11         -63.83         -11.13          78.23          124.6          28.96
     1.366              -36.11          30.33          13.27          46.27         -11.04         -15.98          -63.1         -10.86          78.49          124.3          28.99
     1.405               -36.2          30.27          13.57          46.32         -11.04         -15.84         -62.24         -10.55           78.8          124.0          29.04
     1.444              -36.32          30.21          13.93          46.38         -11.03         -15.67         -61.21         -10.17          79.18          123.5           29.1
     1.483              -36.46          30.13          14.36          46.45         -11.03         -15.46         -59.95         -9.714          79.63          123.0          29.16
     1.522              -36.63          30.03           14.9          46.53         -11.03          -15.2         -58.42         -9.157          80.19          122.4          29.25
     1.561              -36.83          29.91          15.55          46.63         -11.03         -14.88         -56.54          -8.47          80.87          121.6          29.35
       1.6              -37.09          29.76          16.37          46.76         -11.03         -14.49         -54.18         -7.613          81.73          120.6          29.47
     1.639              -37.42          29.57           17.4          46.93         -11.03         -13.99         -51.22         -6.533           82.8          119.4          29.63
     1.678              -37.84          29.33          18.71          47.13         -11.03         -13.36         -47.45         -5.161          84.17          117.8          29.83
     1.717              -38.37          29.02          20.39           47.4         -11.02         -12.55         -42.63         -3.404          85.92          115.8          30.09
     1.756              -39.05          28.62          22.54          47.74         -11.02         -11.52         -36.44          -1.15          88.17          113.3          30.42
     1.795              -39.93          28.12          25.28          48.17         -11.01         -10.19         -28.53           1.73          91.03          110.0          30.85
     1.834              -41.02          27.48          28.74          48.72         -11.01         -8.529         -18.59          5.351          94.64          105.9          31.38
     1.873              -42.36           26.7          32.95          49.39          -11.0           -6.5         -6.479          9.763          99.04          100.9          32.03
     1.912              -43.91           25.8          37.83          50.16         -10.99         -4.148          7.563          14.88          104.1          95.03          32.78
     1.951              -45.59          24.83          43.12           51.0         -10.98         -1.602          22.77          20.42          109.7          88.73          33.59
      1.99              -47.27          23.86           48.4          51.83         -10.97         0.9448          37.97          25.95          115.2          82.43          34.41
     2.029              -48.82          22.96          53.28           52.6         -10.96          3.297          52.01          31.07          120.3          76.61          35.16
     2.068              -50.16          22.18          57.49          53.27         -10.95          5.326          64.13          35.48          124.7          71.59          35.81
